<svg width="200" height="60" viewBox="0 0 200 60" fill="none" xmlns="http://www.w3.org/2000/svg">
  <!-- Fondo del Logo -->
  <rect width="200" height="60" rx="8" fill="#1E3A8A"/>
  
  <!-- Icono de Martillo y Llave -->
  <g transform="translate(15, 15)">
    <!-- Martillo -->
    <path d="M8 12L12 8L14 10L10 14L8 12Z" fill="#F59E0B" stroke="#D97706" stroke-width="1"/>
    <rect x="10" y="14" width="3" height="12" rx="1" fill="#92400E" stroke="#78350F" stroke-width="0.5"/>
    
    <!-- Llave Inglesa -->
    <path d="M18 8C18 6.89543 18.8954 6 20 6H22C23.1046 6 24 6.89543 24 8V10L20 14L16 10V8H18Z" 
          fill="#60A5FA" stroke="#3B82F6" stroke-width="1"/>
    <circle cx="20" cy="8.5" r="1.5" fill="#1E40AF"/>
    <rect x="19" y="14" width="2" height="10" rx="0.5" fill="#3B82F6"/>
  </g>
  
  <!-- Texto "FERRETERÍA" -->
  <text x="50" y="28" font-family="Arial, sans-serif" font-size="18" font-weight="bold" fill="#FFFFFF">
    FERRETERÍA
  </text>
  
  <!-- Texto "RC Pro" -->
  <text x="50" y="45" font-family="Arial, sans-serif" font-size="14" font-weight="600" fill="#F59E0B">
    RC Professional
  </text>
  
  <!-- Línea decorativa -->
  <line x1="50" y1="32" x2="185" y2="32" stroke="#3B82F6" stroke-width="1" opacity="0.5"/>
</svg>
