<svg width="100" height="100" viewBox="0 0 100 100" fill="none" xmlns="http://www.w3.org/2000/svg">
  <defs>
    <linearGradient id="ferreteriaLogoGradient" x1="0%" y1="0%" x2="100%" y2="100%">
      <stop offset="0%" stop-color="#1e40af" />
      <stop offset="55%" stop-color="#2563eb" />
      <stop offset="100%" stop-color="#60a5fa" />
    </linearGradient>
    <clipPath id="logoClip">
      <circle cx="50" cy="50" r="48" />
    </clipPath>
  </defs>

  <circle cx="50" cy="50" r="48" fill="url(#ferreteriaLogoGradient)" />

  <g clip-path="url(#logoClip)">
    <path
      d="M12 35C20 18 39 10 58 16C65 18 71 22 76 28C61 24 47 26 34 34C23 39 16 40 12 35Z"
      fill="white"
      opacity="0.18"
    />

    <g transform="translate(22, 24)">
      <rect x="28" y="20" width="6" height="34" rx="3" fill="#ffffff" opacity="0.95" />
      <rect x="19" y="12" width="26" height="12" rx="3" fill="#ffffff" />
      <rect x="21" y="15" width="22" height="3" rx="1.5" fill="#dbeafe" opacity="0.75" />
    </g>

    <g transform="translate(48, 32)">
      <path
        d="M6 6L6 36M6 6L22 6Q28 6 28 14Q28 22 22 22L6 22M16 22L28 38"
        stroke="#ffffff"
        stroke-width="5"
        stroke-linecap="round"
        stroke-linejoin="round"
        fill="none"
      />
    </g>
  </g>
</svg>
